<svg version="1.1" xmlns="http://www.w3.org/2000/svg" xmlns:xlink="http://www.w3.org/1999/xlink" width="363.26635" height="138.54607" viewBox="0,0,363.26635,138.54607"><defs><linearGradient x1="108.77561" y1="109.22346" x2="108.77561" y2="244.71365" gradientUnits="userSpaceOnUse" id="color-1"><stop offset="0" stop-color="#ababab"/><stop offset="1" stop-color="#848484"/></linearGradient><linearGradient x1="109.03322" y1="108.73868" x2="109.03322" y2="244.22887" gradientUnits="userSpaceOnUse" id="color-2"><stop offset="0" stop-color="#cacaca"/><stop offset="1" stop-color="#8f8f8f"/></linearGradient><linearGradient x1="91.10149" y1="125.23281" x2="91.10149" y2="149.70159" gradientUnits="userSpaceOnUse" id="color-3"><stop offset="0" stop-color="#939393"/><stop offset="1" stop-color="#6e6e6e"/></linearGradient></defs><g transform="translate(-58.50742,-108.04509)"><g data-paper-data="{&quot;isPaintingLayer&quot;:true}" stroke-linecap="butt" stroke-linejoin="miter" stroke-miterlimit="10" stroke-dasharray="" stroke-dashoffset="0" style="mix-blend-mode: normal"><path d="M121.22179,200.4075c-0.13822,0.22588 -0.18542,2.93302 -0.10114,6.01439c0.11463,4.25121 0.04045,5.80874 -0.29667,6.43918c-0.24611,0.45849 -0.96082,1.17995 -1.58788,1.60136c-0.65066,0.43827 -2.32619,0.76865 -2.32619,0.76865c0,0 -0.09376,2.32395 -0.16908,4.19047c-0.51784,-0.26162 -1.06076,-0.48082 -1.6242,-0.65303c-1.0233,-0.62112 -2.07366,-1.12102 -3.10647,-1.46529l-0.60149,-0.04627c-1.63698,-0.36377 -3.49672,-10.95861 -3.68747,-13.16001c-0.11328,-1.30727 -1.38908,-3.36644 -0.20467,-3.93121c3.87328,-1.84693 9.22416,-1.82257 13.30554,-3.19137c2.30044,-0.77152 4.63352,-2.28539 7.04132,-2.7049c0.32657,-0.0569 0.92027,-0.46985 0.98389,-0.14453c0.26975,1.37944 0.50772,2.64572 0.76658,3.83225c-4.8178,1.27605 -8.28563,2.28049 -8.39208,2.45031z" data-paper-data="{&quot;index&quot;:null}" fill="url(#color-1)" fill-rule="nonzero" stroke="none" stroke-width="1"/><path d="M109.68659,244.74406c-1.10578,0.00337 -2.32619,-0.23262 -3.02742,-0.58324c-0.64391,-0.32365 -1.50696,-1.0923 -1.91489,-1.70251c-0.41804,-0.62369 -0.8226,-1.88118 -0.92373,-2.8656c-0.09777,-0.96419 -0.35062,-10.09702 -0.55626,-20.29518c-0.20901,-10.19817 -0.49558,-18.66348 -0.63717,-18.81182c-0.14159,-0.14834 -3.65448,-1.23727 -7.80791,-2.41385c-4.15343,-1.17995 -10.71734,-3.06788 -14.58759,-4.19389c-3.87025,-1.12601 -7.18085,-1.95871 -7.35279,-1.85084c-0.17531,0.10789 -0.23936,0.6001 -0.14159,1.0923c0.0944,0.49221 0.35737,7.19097 0.58324,14.88426c0.35399,12.01529 0.34388,14.13246 -0.06742,15.00225c-0.28993,0.60683 -1.0923,1.32491 -1.99918,1.79353c-1.1395,0.58661 -1.90815,0.74506 -3.09822,0.64055c-0.86979,-0.07754 -1.98232,-0.40119 -2.47453,-0.72483c-0.48884,-0.32027 -1.08555,-1.06196 -1.32154,-1.65193c-0.2933,-0.71809 -0.56301,-4.77712 -0.82597,-12.36253c-0.21576,-6.21329 -0.61357,-17.59141 -0.88665,-25.2847c-0.27308,-7.69329 -0.64729,-17.10257 -0.83609,-20.90202c-0.1888,-3.79944 -0.49895,-9.71607 -0.68774,-13.14805c-0.19216,-3.43198 -0.64391,-9.5003 -1.00801,-13.48517c-0.3641,-3.98486 -0.91026,-9.43962 -1.2103,-12.11643c-0.30004,-2.67681 -0.46524,-5.72782 -0.37084,-6.77967c0.0944,-1.05184 0.47198,-2.58578 0.83609,-3.40837c0.3641,-0.8226 1.14962,-2.05312 1.74296,-2.73075c0.59673,-0.67764 1.94524,-1.65868 3.00046,-2.17449c1.91489,-0.94059 1.91489,-0.94059 21.256,-1.244c17.44981,-0.27307 19.5063,-0.2461 21.07733,0.24611c0.95408,0.30342 2.44756,1.00127 3.31736,1.5508c0.86979,0.55289 2.03627,1.63171 2.5959,2.40373c0.55626,0.76866 1.32828,2.24192 1.71599,3.27353c0.38432,1.03498 0.91699,2.9128 1.18332,4.17703c0.26633,1.26761 0.78888,4.6153 1.16309,7.44382c0.37084,2.82852 0.97431,8.02706 1.33503,11.55006c0.3641,3.523 0.90014,10.12063 1.19344,14.66513c0.29667,4.5445 0.56975,8.47206 0.60683,8.72828c0.05394,0.33039 2.19135,0.90014 7.15389,1.90815c3.89385,0.78888 11.47926,2.34979 16.85647,3.46569c5.37721,1.1159 10.53529,2.21494 11.4624,2.44081c0.9271,0.22587 2.25203,0.69448 2.94314,1.04173c0.69111,0.34387 1.47999,1.05521 1.7497,1.58113c0.43153,0.83271 0.44838,4.322 0.14159,27.05126c-0.29668,21.85947 -0.43491,26.2725 -0.85631,27.17937c-0.32027,0.68774 -1.01813,1.32829 -1.92501,1.76993c-0.78214,0.37758 -1.98569,0.68774 -2.67681,0.68774c-0.68774,0 -1.74633,-0.20564 -2.35317,-0.45849c-0.60345,-0.25285 -1.37549,-0.88328 -1.71599,-1.39909c-0.57649,-0.87991 -0.6102,-2.01941 -0.55626,-18.62977c0.06068,-17.69255 0.06068,-17.69255 -0.71809,-17.51387c-0.42479,0.09777 -6.74934,1.69577 -14.05155,3.54998c-7.30222,1.85421 -17.51252,4.32954 -17.65411,4.55541c-0.13822,0.22588 -0.19014,14.05075 -0.19014,14.05075c0,0 -0.14359,3.55887 -0.21811,5.40566c-0.04379,1.08533 -0.32175,8.31953 -0.42486,11.06134c-0.13316,3.54132 -0.30358,7.74117 -0.38528,8.39292c-0.18542,1.51371 -0.48884,2.35316 -1.08218,2.99371c-0.44838,0.48884 -1.42605,1.16984 -2.16774,1.51371c-0.78214,0.36072 -2.12391,0.62369 -3.20273,0.63043zM108.92332,184.40863c3.15216,0.0573 6.10878,0.03371 6.57402,-0.05057c0.46523,-0.08428 2.8892,-0.53603 5.39407,-1.00464c2.50488,-0.46861 8.95078,-1.84073 14.328,-3.04765c5.37722,-1.20692 12.07935,-2.70714 14.89438,-3.33083c2.81166,-0.62369 5.58286,-1.37549 6.15261,-1.66879c0.56975,-0.29668 1.03499,-0.72483 1.03499,-0.95408c0,-0.27645 -2.53521,-0.89339 -7.51461,-1.83061c-4.1332,-0.77876 -12.28836,-2.41722 -18.12071,-3.64099c-5.83234,-1.22716 -11.81976,-2.3835 -13.30313,-2.5723c-2.67007,-0.34051 -2.84874,-0.31353 -18.71068,2.85548c-8.80582,1.75981 -18.28927,3.61065 -21.07059,4.11298c-2.78131,0.50232 -5.54915,1.11252 -6.15261,1.362c-0.60346,0.24948 -1.09567,0.59335 -1.09567,0.76528c0,0.17194 0.41804,0.47873 0.9271,0.68437c0.50907,0.20227 5.93348,1.67553 12.05237,3.26678c6.1189,1.59462 12.8716,3.36118 15.00225,3.92419c3.45895,0.91362 4.49731,1.03498 9.60819,1.12938zM114.41514,160.61401c0.73158,-0.30679 0.76191,-0.45175 0.58324,-2.76783c-0.10452,-1.34514 -0.48884,-6.08519 -0.85631,-10.53529c-0.36409,-4.4501 -1.04847,-11.35451 -1.51708,-15.33938c-0.47198,-3.98487 -1.08893,-8.53612 -1.37212,-10.11389c-0.28318,-1.57776 -0.89677,-3.69831 -1.35863,-4.71981c-0.46186,-1.01812 -1.1732,-2.20819 -1.58113,-2.64309c-0.40456,-0.4349 -1.19344,-1.03836 -1.7497,-1.34177c-0.78888,-0.42478 -2.23853,-0.56975 -6.57402,-0.6574c-3.05776,-0.06068 -11.40171,0.01349 -18.54211,0.16857c-11.91415,0.25622 -13.08736,0.33376 -14.30777,0.94396c-0.7282,0.36409 -1.61148,1.05521 -1.96209,1.53731c-0.35062,0.47873 -0.71809,1.49011 -0.8226,2.25203c-0.10114,0.75854 0.07417,2.94314 0.39107,4.85803c0.3169,1.9149 1.01813,5.80536 1.55754,8.64737c0.54278,2.84537 1.42943,8.76199 1.97895,13.14805c0.54614,4.38942 1.15973,9.95206 1.36537,12.36253c0.20902,2.41047 0.48209,5.89976 0.6102,7.75397c0.23262,3.37129 0.23262,3.37129 1.41257,3.44209c0,0 42.31984,-6.81677 42.74463,-6.99545z" data-paper-data="{&quot;index&quot;:null}" fill="url(#color-2)" fill-rule="evenodd" stroke="none" stroke-width="1"/><path d="M102.24931,142.7029c-1.50774,3.3842 -4.48182,5.98947 -8.25742,6.76697c-6.32362,1.30218 -12.50106,-3.01596 -13.79767,-9.64486c-1.29662,-6.6289 2.77857,-13.05832 9.10219,-14.3605c4.16513,-0.8577 8.26684,0.7229 10.9522,3.7961" fill="none" fill-rule="nonzero" stroke="url(#color-3)" stroke-width="7"/><path d="M239.91779,163.52033v-41.07373h10.21332l0.43019,7.97304c0.56337,-1.52945 1.26496,-2.84005 2.10476,-3.93179c1.24911,-1.592 2.7064,-2.76763 4.3719,-3.5269c1.66547,-0.75927 3.4167,-1.13889 5.25362,-1.13889c2.96359,0 5.35158,0.94295 7.16404,2.82888c1.43366,1.47241 2.5685,3.58848 3.40447,6.34819c0.58401,-1.6011 1.34735,-2.9824 2.29,-4.14388c1.39607,-1.71448 3.03706,-2.97581 4.92297,-3.78406c1.91041,-0.83275 3.90654,-1.24912 5.9884,-1.24912c2.52272,0 4.76376,0.55109 6.72317,1.65325c1.98388,1.10216 3.53915,2.69415 4.66581,4.77601c1.15113,2.05736 1.72673,4.58009 1.72673,7.56815v27.70089h-11.02158v-25.60678c0,-2.32677 -0.63679,-4.05349 -1.91041,-5.18012c-1.24911,-1.12666 -2.79213,-1.68997 -4.62906,-1.68997c-1.37156,0 -2.5717,0.30615 -3.60038,0.91847c-1.00418,0.58782 -1.78796,1.42057 -2.35127,2.49822c-0.53884,1.07766 -0.80825,2.33902 -0.80825,3.78409v25.27614h-10.65419v-25.90068c0,-2.00838 -0.60007,-3.60039 -1.80018,-4.77602c-1.17563,-1.20014 -2.7064,-1.80018 -4.59231,-1.80018c-1.29809,0 -2.47373,0.29391 -3.52691,0.88173c-1.02868,0.58782 -1.84917,1.4573 -2.46147,2.60845c-0.58782,1.12666 -0.88173,2.51047 -0.88173,4.15147v24.83529z" fill="#666666" fill-rule="nonzero" stroke="none" stroke-width="1"/><path d="M163.61174,164.2551c-4.84949,0 -9.19689,-1.10216 -13.04218,-3.30647c-3.82081,-2.20431 -6.84563,-5.40056 -9.07442,-9.58876c-2.20431,-4.1882 -3.30647,-9.24587 -3.30647,-15.17302c0,-5.95165 1.11441,-11.02158 3.34322,-15.20977c2.22882,-4.2127 5.26585,-7.4212 9.11117,-9.62551c3.84531,-2.20431 8.16822,-3.30647 12.96874,-3.30647c3.11054,0 6.00062,0.44086 8.6703,1.32259c2.69415,0.85722 5.08217,2.11859 7.16404,3.78409c2.08186,1.66547 3.78409,3.71061 5.10668,6.13536c1.32259,2.40024 2.19206,5.13115 2.60845,8.19272h-11.35221c-0.24493,-1.49404 -0.72252,-2.81663 -1.43279,-3.96777c-0.6858,-1.17563 -1.55527,-2.16757 -2.60843,-2.97582c-1.02868,-0.83275 -2.21656,-1.45729 -3.56363,-1.87365c-1.34709,-0.44086 -2.80438,-0.66129 -4.37188,-0.66129c-2.84111,0 -5.33933,0.71027 -7.49467,2.13084c-2.15534,1.42057 -3.82081,3.49018 -4.99645,6.20883c-1.17563,2.69415 -1.76346,5.97615 -1.76346,9.84594c0,3.94326 0.60007,7.26199 1.8002,9.95617c1.20014,2.69415 2.86561,4.72704 4.99645,6.0986c2.13084,1.37156 4.60456,2.05737 7.4212,2.05737c1.56752,0 3.01256,-0.20819 4.33515,-0.62455c1.34709,-0.44086 2.5472,-1.0654 3.60038,-1.87365c1.07766,-0.83275 1.95938,-1.83693 2.64518,-3.01257c0.71027,-1.17563 1.20014,-2.49822 1.46954,-3.96777h11.35223c-0.29391,2.52272 -1.05318,4.94748 -2.27779,7.27424c-1.20014,2.32677 -2.80438,4.40863 -4.81274,6.24556c-2.00838,1.83693 -4.39638,3.28197 -7.16401,4.33515c-2.76763,1.05318 -5.87818,1.57977 -9.3316,1.57977z" fill="#666666" fill-rule="nonzero" stroke="none" stroke-width="1"/><path d="M327.13518,164.32858c-4.1882,0 -7.80083,-0.85722 -10.83787,-2.5717c-3.03706,-1.71448 -5.37608,-4.15145 -7.01706,-7.31097c-1.6165,-3.15952 -2.42475,-6.90686 -2.42475,-11.24201c0,-4.23718 0.80825,-7.94778 2.42475,-11.13178c1.6165,-3.18402 3.90654,-5.66999 6.87013,-7.45792c2.96359,-1.78795 6.44149,-2.68191 10.43376,-2.68191c2.69415,0 5.20463,0.42862 7.53142,1.28586c2.32677,0.85722 4.3719,2.15534 6.13536,3.89429c1.76345,1.71448 3.13502,3.86979 4.11472,6.46599c1.00418,2.5962 1.50629,5.65775 1.50629,9.18465v3.08604h-28.09459c0.06687,2.08717 0.45528,3.86288 1.1652,5.32708c0.80825,1.6165 1.92265,2.82888 3.34322,3.63713c1.44504,0.80825 3.12279,1.21239 5.0332,1.21239c1.29809,0 2.47372,-0.18368 3.5269,-0.55107c1.05318,-0.36739 1.94716,-0.90623 2.68193,-1.6165c0.75927,-0.73477 1.33484,-1.62874 1.72673,-2.6819l9.99289,1.87368c-0.66129,2.25329 -1.81243,4.23718 -3.45343,5.95165c-1.641,1.68997 -3.69836,3.00032 -6.17208,3.93104c-2.44925,0.9307 -5.27811,1.39607 -8.4866,1.39607zM334.33595,135.23162c-0.63679,-1.592 -1.60425,-2.81663 -2.90234,-3.67386c-1.27361,-0.88173 -2.86561,-1.32259 -4.77601,-1.32259c-1.8859,0 -3.50241,0.44086 -4.8495,1.32259c-1.32259,0.88173 -2.32677,2.08186 -3.01256,3.60038c-0.52066,1.1343 -0.84368,2.39566 -0.96905,3.78409h17.4126c-0.13865,-1.37521 -0.43971,-2.61207 -0.90314,-3.71061z" fill="#666666" fill-rule="nonzero" stroke="none" stroke-width="1"/><path d="M213.64969,164.32858c-4.1882,0 -7.80083,-0.85722 -10.83787,-2.5717c-3.03706,-1.71448 -5.37608,-4.15145 -7.01706,-7.31097c-1.6165,-3.15952 -2.42475,-6.90686 -2.42475,-11.24201c0,-4.23718 0.80825,-7.94778 2.42475,-11.13178c1.6165,-3.18402 3.90654,-5.66999 6.87013,-7.45792c2.96359,-1.78795 6.44149,-2.68191 10.43376,-2.68191c2.69415,0 5.20462,0.42862 7.53142,1.28586c2.32677,0.85722 4.3719,2.15534 6.13536,3.89429c1.76345,1.71448 3.13502,3.86979 4.11473,6.46599c1.00418,2.5962 1.50629,5.65775 1.50629,9.18465v3.08604h-28.09459c0.06687,2.08717 0.45528,3.86288 1.16519,5.32708c0.80825,1.6165 1.92266,2.82888 3.34322,3.63713c1.44504,0.80825 3.12279,1.21239 5.0332,1.21239c1.29809,0 2.47372,-0.18368 3.5269,-0.55107c1.05318,-0.36739 1.94716,-0.90623 2.68193,-1.6165c0.75927,-0.73477 1.33483,-1.62874 1.72672,-2.6819l9.9929,1.87368c-0.66129,2.25329 -1.81243,4.23718 -3.45343,5.95165c-1.641,1.68997 -3.69836,3.00032 -6.17209,3.93104c-2.44925,0.9307 -5.2781,1.39607 -8.4866,1.39607zM220.85045,135.23162c-0.63679,-1.592 -1.60425,-2.81663 -2.90233,-3.67386c-1.27361,-0.88173 -2.86561,-1.32259 -4.77602,-1.32259c-1.8859,0 -3.5024,0.44086 -4.84949,1.32259c-1.32259,0.88173 -2.32677,2.08186 -3.01256,3.60038c-0.52066,1.1343 -0.84369,2.39566 -0.96905,3.78409h17.41261c-0.13865,-1.37521 -0.43971,-2.61207 -0.90315,-3.71061z" fill="#666666" fill-rule="nonzero" stroke="none" stroke-width="1"/><path d="M364.42483,139.75045v23.76988h-11.02157v-41.07373h10.39703l0.15213,8.48888c1.04693,-2.58705 2.46575,-4.64517 4.2565,-6.17434c2.20431,-1.8859 5.04543,-2.82886 8.52335,-2.82886c2.84111,0 5.31486,0.62457 7.42119,1.87368c2.10634,1.22461 3.74733,3.00031 4.92297,5.3271c1.17563,2.30229 1.76345,5.05767 1.76345,8.26619v26.12114h-11.02157v-24.21071c0,-2.5472 -0.66129,-4.54334 -1.98388,-5.98838c-1.29809,-1.44504 -3.11055,-2.16757 -5.43731,-2.16757c-1.54302,0 -2.92683,0.34288 -4.15144,1.02868c-1.20014,0.66129 -2.14309,1.62875 -2.82886,2.90236c-0.66129,1.27361 -0.99193,2.82888 -0.99193,4.66581z" fill="#666666" fill-rule="nonzero" stroke="none" stroke-width="1"/><path d="M420.63484,122.44659v8.41315h-7.67833v20.64708c0,1.29809 0.28166,2.26555 0.845,2.90236c0.58782,0.61232 1.55525,0.91847 2.90232,0.91847c0.41636,0 1.00418,-0.04898 1.76345,-0.14695c0.75927,-0.12245 1.33483,-0.23268 1.72672,-0.33063l1.57977,8.26619c-1.22461,0.36739 -2.44925,0.62456 -3.67386,0.77152c-1.20014,0.14695 -2.35125,0.22043 -3.45338,0.22043c-4.11472,0 -7.26199,-1.00418 -9.4418,-3.01256c-2.17981,-2.00838 -3.26972,-4.88622 -3.26972,-8.63356v-21.60229h-5.65774v-8.41312h5.65774v-9.77246h11.02158v9.77246z" fill="#666666" fill-rule="nonzero" stroke="none" stroke-width="1"/><path d="M202.72704,246.49502c-6.33289,0 -12.01011,-1.43929 -17.03162,-4.31788c-4.98955,-2.87859 -8.93961,-7.05252 -11.85016,-12.52183c-2.87859,-5.46931 -4.31789,-12.07406 -4.31789,-19.81425c0,-7.77218 1.45529,-14.39294 4.36588,-19.86225c2.91059,-5.50131 6.87661,-9.69124 11.89816,-12.56983c5.02154,-2.87859 10.66678,-4.31788 16.9357,-4.31788c4.06202,0 7.83614,0.57573 11.32244,1.72716c3.51826,1.11943 6.63674,2.76663 9.35542,4.94158c2.71868,2.17492 4.94159,4.84564 6.66874,8.01208c1.72715,3.13445 2.86258,6.70071 3.40633,10.69877h-14.8247c-0.31985,-1.95105 -0.94354,-3.67821 -1.87107,-5.18146c-0.89558,-1.53525 -2.031,-2.83059 -3.40631,-3.88608c-1.34334,-1.08747 -2.89458,-1.90306 -4.65371,-2.44678c-1.75914,-0.57572 -3.6622,-0.86358 -5.70917,-0.86358c-3.71017,0 -6.97257,0.92753 -9.7872,2.78263c-2.81463,1.8551 -4.98955,4.55778 -6.5248,8.10804c-1.53525,3.51826 -2.30287,7.80417 -2.30287,12.85768c0,5.14946 0.78361,9.48334 2.35086,13.00163c1.56725,3.51826 3.74217,6.17298 6.5248,7.96409c2.78263,1.7911 6.01304,2.68668 9.69124,2.68668c2.04701,0 3.93407,-0.27186 5.66122,-0.81558c1.75914,-0.57572 3.32636,-1.3913 4.70169,-2.44679c1.4073,-1.08747 2.55872,-2.39882 3.4543,-3.93407c0.92753,-1.53525 1.56725,-3.26239 1.91906,-5.18145h14.82473c-0.38381,3.29439 -1.37535,6.46083 -2.97455,9.49933c-1.56725,3.0385 -3.66221,5.75717 -6.2849,8.15599c-2.62272,2.39882 -5.74118,4.28588 -9.35539,5.66122c-3.61421,1.37534 -7.67623,2.063 -12.18601,2.063z" fill="#666666" fill-rule="nonzero" stroke="none" stroke-width="1"/><path d="M319.98145,246.59098c-3.39035,0 -6.44484,-0.59172 -9.16348,-1.77512c-2.68668,-1.21539 -4.81364,-3.00652 -6.38085,-5.37335c-1.53525,-2.39882 -2.30287,-5.37336 -2.30287,-8.92362c0,-2.97454 0.54372,-5.46931 1.6312,-7.48432c1.11943,-2.01501 2.62272,-3.63021 4.50979,-4.8456c1.91906,-1.21539 4.07802,-2.14297 6.47684,-2.78264c2.43081,-0.63967 4.97355,-1.08748 7.62827,-1.34334c3.10248,-0.31985 5.59725,-0.60771 7.48432,-0.86357c1.91906,-0.28786 3.31039,-0.71963 4.17397,-1.29536c0.89558,-0.60771 1.34334,-1.48725 1.34334,-2.63869v-0.23986c0,-1.53525 -0.31985,-2.8306 -0.95953,-3.88608c-0.63967,-1.05548 -1.5832,-1.8551 -2.83059,-2.39882c-1.24739,-0.57572 -2.78264,-0.86358 -4.60575,-0.86358c-1.8551,0 -3.47029,0.28786 -4.8456,0.86358c-1.37534,0.54372 -2.49478,1.27939 -3.35835,2.20692c-0.86358,0.92753 -1.50325,1.96705 -1.91905,3.11848l-13.1935,-2.20692c0.92753,-3.10248 2.46277,-5.74117 4.60573,-7.91609c2.14296,-2.17492 4.79764,-3.83812 7.96409,-4.98955c3.19844,-1.15143 6.78067,-1.72715 10.74672,-1.72715c2.91059,0 5.72517,0.35182 8.44385,1.05548c2.71868,0.67167 5.14947,1.72716 7.29243,3.16645c2.17492,1.43929 3.8861,3.31039 5.13349,5.61325c1.27938,2.30287 1.91906,5.08551 1.91906,8.3479v36.12628h-13.62531v-7.43634h-0.47976c-0.86358,1.66319 -2.01502,3.13445 -3.4543,4.41383c-1.43929,1.24739 -3.18244,2.23891 -5.22942,2.97454c-2.01501,0.73563 -4.34987,1.10347 -7.00456,1.10347zM324.05943,236.46793c2.27087,0 4.25392,-0.44776 5.94908,-1.34334c1.72715,-0.89558 3.07049,-2.11096 4.03002,-3.64621c0.95953,-1.53525 1.4393,-3.24639 1.4393,-5.13346v-5.80513c-0.4158,0.31985 -1.05549,0.60772 -1.91907,0.86358c-0.86358,0.25586 -1.8231,0.47976 -2.87859,0.67167c-1.05548,0.19191 -2.09496,0.36781 -3.11845,0.52775c-1.02349,0.15991 -1.93506,0.28787 -2.73464,0.38381c-1.75914,0.25586 -3.31036,0.67167 -4.6537,1.24739c-1.34334,0.57572 -2.38282,1.34335 -3.11845,2.30287c-0.73563,0.92753 -1.10345,2.12695 -1.10345,3.59824c0,1.37534 0.35182,2.54277 1.05548,3.5023c0.70367,0.92753 1.64719,1.63121 2.83062,2.11097c1.21539,0.47976 2.62273,0.71965 4.22193,0.71965z" fill="#666666" fill-rule="nonzero" stroke="none" stroke-width="1"/><path d="M258.23576,214.49473v31.04077h-14.39293v-71.4849h14.10507v28.15414c1.33035,-3.01522 3.0735,-5.44334 5.22945,-7.28437c2.87859,-2.46278 6.58875,-3.69417 11.13053,-3.69417c3.71017,0 6.9406,0.81563 9.69125,2.44682c2.78263,1.5992 4.92558,3.91806 6.42883,6.9566c1.53525,3.00653 2.30288,6.60474 2.30288,10.79471v34.11127h-14.39294v-31.61646c0,-3.32636 -0.86358,-5.93307 -2.59073,-7.82014c-1.69516,-1.88707 -4.06201,-2.83059 -7.10051,-2.83059c-2.01501,0 -3.82213,0.44776 -5.42133,1.34334c-1.56725,0.86358 -2.79862,2.12695 -3.69417,3.79015c-0.86358,1.66319 -1.29535,3.69421 -1.29535,6.09303z" fill="#666666" fill-rule="nonzero" stroke="none" stroke-width="1"/><path d="M388.68372,245.5355v-53.63767h13.91316v9.35543h0.57572c0.99152,-3.32636 2.63872,-5.83713 4.94155,-7.53229c2.33486,-1.69516 5.00555,-2.54273 8.01208,-2.54273c0.73563,0 1.51925,0.04799 2.35087,0.14394c0.86358,0.06396 1.6312,0.17591 2.30287,0.33585v12.85768c-0.63967,-0.22391 -1.56724,-0.39981 -2.78263,-0.52773c-1.21539,-0.12795 -2.36683,-0.19191 -3.4543,-0.19191c-2.17492,0 -4.14196,0.47976 -5.90109,1.43929c-1.75914,0.92753 -3.13445,2.23892 -4.12597,3.93408c-0.95953,1.66319 -1.4393,3.61421 -1.4393,5.85313v30.51301z" fill="#666666" fill-rule="nonzero" stroke="none" stroke-width="1"/><path d="M362.05677,245.5355v-53.63767h14.39293v53.63767z" fill="#666666" fill-rule="nonzero" stroke="none" stroke-width="1"/><path d="M369.25324,184.89327c-2.17492,0 -4.03001,-0.71963 -5.56526,-2.15892c-1.53525,-1.43929 -2.30288,-3.18244 -2.30288,-5.22942c0,-2.04701 0.76763,-3.79012 2.30288,-5.22941c1.53525,-1.43929 3.39034,-2.15892 5.56526,-2.15892c2.17492,0 4.03002,0.71967 5.56527,2.15896c1.56725,1.4073 2.35087,3.15044 2.35087,5.22944c0,2.04701 -0.78362,3.79016 -2.35083,5.22945c-1.53525,1.43929 -3.39034,2.15895 -5.56527,2.15895z" fill="#666666" fill-rule="nonzero" stroke="none" stroke-width="1"/></g></g></svg>
