<svg version="1.1" xmlns="http://www.w3.org/2000/svg" xmlns:xlink="http://www.w3.org/1999/xlink" width="98.56681" height="131.48819" viewBox="0,0,98.56681,131.48819"><defs><linearGradient x1="238.17326" y1="122.35077" x2="238.17326" y2="253.83896" gradientUnits="userSpaceOnUse" id="color-1"><stop offset="0" stop-color="#ababab"/><stop offset="1" stop-color="#848484"/></linearGradient><linearGradient x1="238.42326" y1="122.85077" x2="238.42326" y2="254.33896" gradientUnits="userSpaceOnUse" id="color-2"><stop offset="0" stop-color="#cacaca"/><stop offset="1" stop-color="#8f8f8f"/></linearGradient><linearGradient x1="221.02119" y1="137.88725" x2="221.02119" y2="161.63329" gradientUnits="userSpaceOnUse" id="color-3"><stop offset="0" stop-color="#939393"/><stop offset="1" stop-color="#6e6e6e"/></linearGradient></defs><g transform="translate(-189.38985,-123.35077)"><g data-paper-data="{&quot;isPaintingLayer&quot;:true}" stroke-linecap="butt" stroke-linejoin="miter" stroke-miterlimit="10" stroke-dasharray="" stroke-dashoffset="0" style="mix-blend-mode: normal"><path d="M250.25182,210.84149c-0.13414,0.21921 -0.17994,2.84639 -0.09815,5.83674c0.11124,4.12564 0.03926,5.63717 -0.28791,6.24898c-0.23884,0.44495 -0.93244,1.1451 -1.54098,1.55406c-0.63144,0.42532 -2.25748,0.74595 -2.25748,0.74595c0,0 -0.09099,2.25531 -0.16409,4.0667c-0.50254,-0.25389 -1.02943,-0.46662 -1.57623,-0.63374c-0.99307,-0.60277 -2.01241,-1.08791 -3.01471,-1.42201l-0.58372,-0.0449c-1.58863,-0.35303 -3.39344,-10.63492 -3.57855,-12.7713c-0.10993,-1.26866 -1.34805,-3.267 -0.19862,-3.81509c3.75887,-1.79238 8.9517,-1.76874 12.91253,-3.09711c2.23249,-0.74873 4.49666,-2.21789 6.83334,-2.625c0.31692,-0.05522 0.89309,-0.45597 0.95483,-0.14026c0.26178,1.3387 0.49272,2.56757 0.74394,3.71906c-4.6755,1.23836 -8.0409,2.21313 -8.1442,2.37793z" data-paper-data="{&quot;index&quot;:null}" fill="url(#color-1)" fill-rule="nonzero" stroke="none" stroke-width="1"/><path d="M239.05734,254.83893c-1.07312,0.00327 -2.25748,-0.22575 -2.938,-0.56601c-0.62489,-0.31409 -1.46245,-1.06004 -1.85833,-1.65222c-0.40569,-0.60527 -0.7983,-1.82562 -0.89645,-2.78096c-0.09488,-0.93571 -0.34026,-9.79878 -0.53983,-19.69572c-0.20284,-9.89694 -0.48094,-18.11221 -0.61835,-18.25617c-0.13741,-0.14396 -3.54654,-1.20072 -7.57729,-2.34255c-4.03075,-1.1451 -10.40078,-2.97726 -14.15671,-4.07001c-3.75593,-1.09275 -6.96875,-1.90086 -7.13561,-1.79617c-0.17013,0.1047 -0.23229,0.58237 -0.13741,1.06004c0.09161,0.47767 0.34681,6.97857 0.56601,14.44462c0.34353,11.66039 0.33372,13.71503 -0.06543,14.55913c-0.28137,0.58891 -1.06004,1.28578 -1.94013,1.74055c-1.10584,0.56928 -1.85179,0.72305 -3.00671,0.62163c-0.8441,-0.07525 -1.92377,-0.38934 -2.40144,-0.70342c-0.4744,-0.31081 -1.05349,-1.03059 -1.28251,-1.60314c-0.28464,-0.69688 -0.54638,-4.63602 -0.80157,-11.99738c-0.20939,-6.02977 -0.59545,-17.07181 -0.86046,-24.53786c-0.26501,-7.46605 -0.62817,-16.59741 -0.81139,-20.28463c-0.18322,-3.68722 -0.48421,-9.42908 -0.66743,-12.75969c-0.18648,-3.33061 -0.62489,-9.21969 -0.97824,-13.08686c-0.35335,-3.86716 -0.88337,-9.1608 -1.17455,-11.75854c-0.29118,-2.59774 -0.4515,-5.55864 -0.35989,-6.57942c0.09161,-1.02077 0.45804,-2.5094 0.81139,-3.3077c0.35335,-0.7983 1.11566,-1.99248 1.69148,-2.65009c0.5791,-0.65762 1.88778,-1.60969 2.91183,-2.11026c1.85833,-0.91281 1.85833,-0.91281 20.62816,-1.20726c16.93439,-0.265 18.93014,-0.23883 20.45476,0.23884c0.9259,0.29446 2.37527,0.9717 3.21937,1.50499c0.8441,0.53656 1.97612,1.58351 2.51922,2.33273c0.53983,0.74596 1.28905,2.1757 1.6653,3.17684c0.37297,1.00441 0.8899,2.82676 1.14837,4.05365c0.25846,1.23017 0.76558,4.47898 1.12874,7.22395c0.35989,2.74497 0.94553,7.78996 1.2956,11.2089c0.35335,3.41894 0.87355,9.82169 1.15819,14.23196c0.28791,4.41027 0.55292,8.22182 0.58891,8.47047c0.05235,0.32063 2.12662,0.87355 6.94258,1.85179c3.77884,0.76558 11.14019,2.28038 16.35858,3.36332c5.21838,1.08294 10.22411,2.14952 11.12383,2.36872c0.89972,0.2192 2.18551,0.67397 2.85621,1.01096c0.6707,0.33371 1.43628,1.02404 1.69802,1.53443c0.41878,0.80811 0.43514,4.19434 0.13741,26.25224c-0.28792,21.2138 -0.42206,25.49648 -0.83102,26.37657c-0.31081,0.66743 -0.98806,1.28906 -1.86815,1.71765c-0.75904,0.36643 -1.92704,0.66743 -2.59774,0.66743c-0.66743,0 -1.69475,-0.19957 -2.28366,-0.44495c-0.58563,-0.24538 -1.33486,-0.85719 -1.6653,-1.35776c-0.55946,-0.85392 -0.59218,-1.95976 -0.53983,-18.0795c0.05889,-17.16996 0.05889,-17.16996 -0.69688,-16.99656c-0.41224,0.09488 -6.54998,1.64568 -13.63651,3.44512c-7.08653,1.79944 -16.99525,4.20166 -17.13266,4.42086c-0.13414,0.21921 -0.18452,13.63573 -0.18452,13.63573c0,0 -0.13935,3.45375 -0.21167,5.24599c-0.0425,1.05327 -0.31225,8.07379 -0.41231,10.73462c-0.12923,3.43672 -0.29461,7.51252 -0.3739,8.14502c-0.17994,1.469 -0.4744,2.28365 -1.05022,2.90528c-0.43514,0.4744 -1.38393,1.13529 -2.10371,1.469c-0.75904,0.35007 -2.06118,0.60527 -3.10813,0.61181zM238.31661,196.28564c3.05905,0.05561 5.92834,0.03271 6.37984,-0.04908c0.45149,-0.08179 2.80386,-0.5202 5.23474,-0.97497c2.43089,-0.45477 8.6864,-1.78636 13.90479,-2.95763c5.21839,-1.17127 11.72256,-2.62718 14.45444,-3.23245c2.72861,-0.60527 5.41796,-1.33486 5.97088,-1.6195c0.55292,-0.28792 1.00442,-0.70342 1.00442,-0.9259c0,-0.26828 -2.46033,-0.867 -7.29265,-1.77654c-4.01112,-0.75576 -11.9254,-2.34582 -17.58547,-3.53345c-5.66007,-1.19091 -11.47064,-2.3131 -12.91019,-2.49632c-2.5912,-0.33045 -2.7646,-0.30427 -18.15802,2.77114c-8.54572,1.70783 -17.74906,3.504 -20.44822,3.99149c-2.69916,0.48748 -5.38524,1.07966 -5.97088,1.32177c-0.58564,0.24211 -1.06331,0.57582 -1.06331,0.74268c0,0.16686 0.40569,0.46459 0.89972,0.66416c0.49403,0.1963 5.75822,1.62604 11.69638,3.17029c5.93816,1.54752 12.49141,3.2619 14.55913,3.80828c3.35678,0.88663 4.36447,1.00441 9.32439,1.09602zM243.64622,173.19385c0.70997,-0.29773 0.73941,-0.43841 0.56601,-2.68608c-0.10143,-1.30541 -0.4744,-5.90545 -0.83102,-10.22411c-0.35334,-4.31866 -1.0175,-11.01913 -1.47227,-14.8863c-0.45804,-3.86717 -1.05677,-8.28399 -1.33159,-9.81515c-0.27482,-1.53116 -0.87028,-3.58907 -1.3185,-4.5804c-0.44822,-0.98805 -1.13855,-2.14297 -1.53443,-2.56502c-0.39261,-0.42205 -1.15819,-1.00769 -1.69802,-1.30214c-0.76558,-0.41223 -2.17241,-0.55292 -6.37984,-0.63798c-2.96744,-0.05889 -11.06494,0.01309 -17.99443,0.16359c-11.56224,0.24865 -12.7008,0.3239 -13.88516,0.91608c-0.70669,0.35334 -1.56388,1.02404 -1.90414,1.4919c-0.34026,0.46459 -0.69688,1.4461 -0.7983,2.18551c-0.09815,0.73613 0.07198,2.85621 0.37952,4.71454c0.30754,1.85834 0.98806,5.63389 1.51153,8.39195c0.52675,2.76133 1.38721,8.50319 1.9205,12.75969c0.53001,4.25977 1.12547,9.6581 1.32504,11.99738c0.20285,2.33927 0.46785,5.7255 0.59218,7.52494c0.22575,3.27171 0.22575,3.27171 1.37085,3.34042c0,0 41.06983,-6.61542 41.48207,-6.78882z" data-paper-data="{&quot;index&quot;:null}" fill="url(#color-2)" fill-rule="evenodd" stroke="none" stroke-width="1"/><path d="M231.83973,154.84133c-1.46321,3.28424 -4.34944,5.81256 -8.01352,6.56709c-6.13684,1.26372 -12.13181,-2.92688 -13.39013,-9.35998c-1.25832,-6.4331 2.6965,-12.67261 8.83334,-13.93633c4.0421,-0.83237 8.02266,0.70155 10.6287,3.68397" fill="none" fill-rule="nonzero" stroke="url(#color-3)" stroke-width="7"/></g></g></svg>